<svg width="640" height="480" xmlns="http://www.w3.org/2000/svg" xmlns:svg="http://www.w3.org/2000/svg">
 <!-- Created with SVG-edit - https://github.com/SVG-Edit/svgedit-->
 <g class="layer">
  <title>Layer 1</title>
  <rect fill="#ff7f00" height="83" id="svg_3" stroke="#000000" stroke-width="5" width="131" x="44.77777" y="99.66667"/>
  <path d="m312.777766,121.666674c0,0 88.999998,-78.999998 217.999995,10c128.999997,88.999998 -278.999994,166.999996 -66.999999,219.999995c211.999996,52.999999 -150.999997,-229.999995 -150.999997,-229.999995l0.000001,0z" fill="#ff7f00" id="svg_2" stroke="#000000" stroke-width="5"/>
  <path d="m70.777771,259.666671l123.222229,-17.666671l107,35l-49,82l92,47l-203,15" fill="#00ff00" id="svg_1" stroke="#000000" stroke-width="0"/>
  <path d="m139.77777,420.666668c0,0 -154.999997,8 -114.999998,-60.999999c39.999999,-68.999999 -55.999999,-166.999996 -6,-104.999998c49.999999,61.999999 49.999999,61.999999 49.222228,61.333329c-0.777771,-0.66667 2.777771,-59.333329 2,-60c-0.777771,-0.666671 69.77777,164.666668 69.77777,164.666668z" fill="#ff00ff" id="svg_5" stroke="#000000" stroke-width="0" transform="matrix(1 0 0 1 0 0)"/>
 </g>
</svg>