<svg xmlns="http://www.w3.org/2000/svg" width="400" height="340">
    <linearGradient id="grad1" x1="0%" y1="0%" x2="100%" y2="0%">
        <stop offset="0%" style="stop-color:#fe00f2;stop-opacity:1"/>
        <stop offset="100%" style="stop-color:#fb0280;stop-opacity:1"/>
    </linearGradient>
    <path fill="url(#grad1)" d="M295.86036259654253,265.06299455047224C283.25939031466737,279.66889340141296,281.5896050558386,288.70257792167916,270.49034428540784,307.6353931056444C259.3910835149771,326.5682082896097,248.67175385645433,368.67716897543784,229.26479797395783,378.6598856542639C209.85784209146132,388.64260233309,165.62116766457513,386.5671353869627,154.04860899042882,367.5316931786008C142.4760503162825,348.49625097023886,169.62542567065202,284.3228925659011,159.82944592907998,264.44723240409246C150.03346618750794,244.57157224228385,100.15624030725056,258.95026981880164,95.27273054099662,248.27773220774907C90.38922077474268,237.6051945966965,132.028515909599,223.39387532198535,130.52838733155636,200.412006737777C129.0282587535137,177.43013815356866,82.56297879314711,132.26698137343647,86.27195907274074,110.38652070249896C89.98093935233437,88.50606003156146,130.5335212437292,64.26323700620648,152.78226900911812,69.129242712152C175.03101677450704,73.99524841809753,201.30898964603838,127.35907367484808,219.76444566507428,139.5825549381721C238.21990168411017,151.80603620149614,246.74860274806312,138.72103897939695,263.51500512333354,142.4701302920962C280.281407498604,146.21922160479545,306.59933110780923,149.15545786305037,320.36285991669683,162.07710281436766C334.12638872558443,174.99874776568495,350.179927530018,202.83568471064925,346.09617797665896,220C342.0124284232999,237.16431528935075,308.4613348784177,250.4570956995315,295.86036259654253,265.06299455047224" stroke="none" stroke-width="3"/>
</svg>